<?xml version="1.0" standalone="no"?>
<!DOCTYPE svg PUBLIC "-//W3C//DTD SVG 20010904//EN"
 "http://www.w3.org/TR/2001/REC-SVG-20010904/DTD/svg10.dtd">
<svg version="1.0" xmlns="http://www.w3.org/2000/svg"
 width="500.000000pt" height="500.000000pt" viewBox="0 0 500.000000 500.000000"
 preserveAspectRatio="xMidYMid meet">

<g transform="translate(0.000000,500.000000) scale(0.100000,-0.100000)"
fill="#000000" stroke="none">
<path d="M2136 3424 c-80 -12 -269 -59 -289 -71 -4 -2 1 -12 12 -21 12 -10 35
-66 56 -134 20 -64 44 -123 53 -131 9 -8 57 -42 106 -76 72 -49 92 -58 108
-50 14 7 233 157 257 175 2 2 -4 69 -12 150 -8 81 -13 154 -10 161 7 18 -159
16 -281 -3z"/>
<path d="M2504 3418 c3 -13 10 -79 17 -148 6 -69 15 -132 20 -140 4 -8 75 -49
158 -90 l151 -74 67 33 c89 43 261 140 267 149 5 9 -99 95 -169 140 -102 64
-260 117 -422 141 -95 14 -94 15 -89 -11z"/>
<path d="M1706 3291 c-42 -21 -106 -61 -143 -87 -76 -53 -245 -222 -240 -238
4 -12 200 -76 232 -76 21 0 172 87 255 146 l48 34 -35 112 c-19 61 -32 119
-30 129 7 26 -2 24 -87 -20z"/>
<path d="M3850 3280 c-11 -11 -20 -33 -20 -50 0 -17 9 -39 20 -50 44 -44 120
-11 120 51 0 28 -1 29 -16 15 -23 -23 -58 -3 -51 30 6 31 -24 33 -53 4z"/>
<path d="M4072 3120 c-31 -26 -81 -34 -128 -21 -29 8 -40 8 -46 -2 -13 -21 23
-37 87 -37 70 0 128 25 133 59 4 26 -15 27 -46 1z"/>
<path d="M3200 3048 c-30 -20 -110 -65 -177 -99 -68 -34 -123 -64 -123 -66 0
-3 14 -76 30 -165 17 -88 30 -164 30 -170 0 -12 18 -6 165 52 131 52 355 155
355 164 0 21 -125 206 -188 278 l-37 43 -55 -37z"/>
<path d="M2365 2955 l-120 -85 2 -42 c1 -24 5 -132 9 -242 l6 -198 67 7 c152
16 511 93 535 115 4 5 -7 89 -25 190 l-34 182 -157 79 c-87 43 -159 79 -160
79 -2 -1 -57 -39 -123 -85z"/>
<path d="M1855 2954 c-28 -19 -89 -58 -137 -87 l-86 -51 -6 -125 c-4 -70 -8
-160 -9 -203 l-4 -76 76 -12 c42 -7 167 -15 279 -17 l203 -6 -6 119 c-17 350
-16 345 -34 351 -9 4 -62 37 -118 75 -56 37 -104 68 -105 68 -2 0 -26 -16 -53
-36z"/>
<path d="M1208 2813 c-64 -98 -128 -207 -128 -220 0 -11 97 -57 209 -99 53
-20 207 -64 224 -64 4 0 15 187 22 354 0 8 -252 95 -277 96 -3 0 -26 -30 -50
-67z"/>
</g>
</svg>
